<svg width="20" height="20" viewBox="0 0 20 20" fill="none" xmlns="http://www.w3.org/2000/svg">
<path d="M12.1133 18.0717C12.145 18.1506 12.2 18.2179 12.2711 18.2646C12.3421 18.3113 12.4257 18.3352 12.5107 18.333C12.5957 18.3309 12.678 18.3027 12.7465 18.2524C12.8151 18.2021 12.8666 18.1321 12.8942 18.0517L18.3108 2.21833C18.3375 2.14449 18.3426 2.06458 18.3255 1.98796C18.3084 1.91133 18.2699 1.84116 18.2144 1.78564C18.1588 1.73013 18.0887 1.69158 18.012 1.67449C17.9354 1.6574 17.8555 1.66249 17.7817 1.68916L1.94833 7.10583C1.86791 7.13341 1.79785 7.18493 1.74756 7.25347C1.69726 7.32202 1.66914 7.40431 1.66696 7.48929C1.66479 7.57428 1.68866 7.65791 1.73538 7.72893C1.7821 7.79996 1.84943 7.855 1.92833 7.88666L8.53667 10.5367C8.74557 10.6203 8.93538 10.7454 9.09464 10.9044C9.2539 11.0633 9.37932 11.2529 9.46333 11.4617L12.1133 18.0717Z" stroke="#C6D2FF" stroke-width="1.66667" stroke-linecap="round" stroke-linejoin="round"/>
<path d="M18.2117 1.78918L9.095 10.905" stroke="#C6D2FF" stroke-width="1.66667" stroke-linecap="round" stroke-linejoin="round"/>
</svg>
