<svg width="20" height="20" viewBox="0 0 20 20" fill="none" xmlns="http://www.w3.org/2000/svg">
<path d="M10.5492 18.3333H15C15.442 18.3333 15.866 18.1577 16.1785 17.8452C16.4911 17.5326 16.6667 17.1087 16.6667 16.6667V6.66666C16.6673 6.40259 16.6157 6.141 16.5147 5.89699C16.4137 5.65298 16.2654 5.43139 16.0783 5.245L13.0883 2.255C12.9019 2.06793 12.6803 1.91963 12.4363 1.81865C12.1923 1.71767 11.9307 1.66601 11.6667 1.66666H5C4.55797 1.66666 4.13405 1.84226 3.82149 2.15482C3.50893 2.46738 3.33333 2.8913 3.33333 3.33333V11.1167" stroke="#C6D2FF" stroke-width="1.66667" stroke-linecap="round" stroke-linejoin="round"/>
<path d="M11.6667 1.66666V5.83332C11.6667 6.05434 11.7545 6.2663 11.9107 6.42258C12.067 6.57886 12.279 6.66666 12.5 6.66666H16.6667" stroke="#C6D2FF" stroke-width="1.66667" stroke-linecap="round" stroke-linejoin="round"/>
<path d="M8.64833 10.5183C8.98019 10.1868 9.43014 10.0007 9.89922 10.0009C10.3683 10.0012 10.8181 10.1877 11.1496 10.5196C11.4811 10.8514 11.6672 11.3014 11.667 11.7705C11.6667 12.2396 11.4802 12.6893 11.1483 13.0208L6.96667 17.1975C6.76865 17.3956 6.52389 17.5407 6.255 17.6192L3.86583 18.3167C3.79413 18.3376 3.71812 18.3388 3.64576 18.3203C3.5734 18.3018 3.50736 18.2641 3.45454 18.2113C3.40172 18.1585 3.36407 18.0924 3.34554 18.0201C3.327 17.9477 3.32825 17.8717 3.34917 17.8L4.04583 15.4092C4.12448 15.1406 4.26949 14.8961 4.4675 14.6983L8.64833 10.5183Z" stroke="#C6D2FF" stroke-width="1.66667" stroke-linecap="round" stroke-linejoin="round"/>
</svg>
